<svg t="1735976061018" class="icon" viewBox="0 0 1024 1024" version="1.1" xmlns="http://www.w3.org/2000/svg" p-id="10384" width="128" height="128"><path d="M779.8 577.2c0 16.7-5.8 30.8-17.5 42.5L530.2 852.1c-12.3 11.7-26.7 17.5-43.1 17.5-16.7 0-30.8-5.8-42.5-17.5L106.9 513.9c-12-11.7-22.2-27.6-30.5-47.7-8.3-20-12.4-38.5-12.4-55.2V214.4c0-16.4 5.9-30.5 17.9-42.5 12-12 26.1-17.9 42.5-17.9H321c16.7 0 35.1 4.3 55.2 12.6 20.2 8.3 36.2 18.4 48.1 30.5l337.8 337.3c11.7 12.2 17.7 26.4 17.7 42.8zM258 348c11.9-11.9 17.6-26.1 17.6-42.7 0-16.7-5.8-30.8-17.6-42.7-11.9-11.9-26.1-17.6-42.7-17.6s-30.8 5.8-42.7 17.6c-11.9 11.9-17.6 26.1-17.6 42.7 0 16.7 5.8 30.8 17.6 42.7 11.9 11.9 26.1 17.6 42.7 17.6s30.8-6 42.7-17.6z m703.3 229.2c0 16.7-5.8 30.8-17.5 42.5L711.7 852.1c-12.3 11.7-26.7 17.5-43.1 17.5-11.3 0-20.6-2.1-27.9-6.6-7.3-4.4-15.6-11.5-25-21.3l222.1-222.1c11.7-11.7 17.5-25.8 17.5-42.5 0-16.4-5.8-30.7-17.5-43.1L500 196.9c-12-12-28-22.2-48.1-30.5-20.2-8.3-38.6-12.6-55.2-12.6h105.8c16.7 0 35.1 4.3 55.2 12.6 20.2 8.3 36.2 18.4 48.1 30.5l337.8 337.3c11.8 12.4 17.7 26.6 17.7 43z m0 0" p-id="10385" fill="#000000"></path></svg>