<svg t="1735976154007" class="icon" viewBox="0 0 1170 1024" version="1.1" xmlns="http://www.w3.org/2000/svg" p-id="11425" width="128" height="128"><path d="M910.543238 507.904a281.84381 281.84381 0 0 0 114.297905-226.401524C1024.841143 126.780952 898.596571 0 743.338667 0c-93.622857 0-177.200762 46.226286-228.205715 117.369905a285.93981 285.93981 0 0 0-40.813714 80.554666v0.536381a179.931429 179.931429 0 0 1 81.237333 42.617905 196.120381 196.120381 0 0 1 39.15581-82.358857 193.097143 193.097143 0 0 1 180.272762-67.291429c78.994286 12.434286 144.335238 76.604952 158.037333 155.355429a192.75581 192.75581 0 0 1-236.934095 221.232762v-0.536381a179.931429 179.931429 0 0 1-81.237333-42.666667 196.120381 196.120381 0 0 1-39.15581 82.407619s0 0.487619 0.536381 0.487619c-0.487619 0.585143-1.219048 0.585143-1.80419 1.26781a196.217905 196.217905 0 0 1-103.033905 62.805333c-2.925714 2.340571-5.266286 4.729905-8.289524 7.070476a409.990095 409.990095 0 0 0-75.288381 84.163048l-4.193524 5.997714c14.140952-1.80419 28.476952-2.925714 43.203048-2.925714 23.064381 0 45.689905 2.340571 66.950095 7.070476 5.948952-7.655619 13.604571-15.408762 21.357714-21.406476a301.787429 301.787429 0 0 1 63.488-46.226286c14.872381-8.289524 30.232381-15.408762 46.226286-20.675047 36.815238-14.140952 77.092571-21.942857 118.491429-21.942857 175.104 0 319.878095 132.87619 338.602666 303.006476 2.340571 21.796571 21.796571 37.64419 43.739429 37.64419a44.860952 44.860952 0 0 0 44.275809-50.273524c-18.041905-155.257905-120.100571-285.93981-259.413333-345.380571z" fill="#000000" p-id="11426"></path><path d="M594.176 610.937905a205.775238 205.775238 0 0 0 30.817524-26.087619 280.868571 280.868571 0 0 0 67.632762-107.227429c1.26781-2.925714 2.389333-5.997714 3.608381-9.459809V467.626667a281.063619 281.063619 0 0 0-101.229715-308.711619 277.74781 277.74781 0 0 0-79.481904-41.545143 267.946667 267.946667 0 0 0-69.144381-13.653334C307.69981 94.744381 177.993143 192.26819 151.271619 328.801524a280.966095 280.966095 0 0 0 108.592762 282.185143 430.762667 430.762667 0 0 0-259.559619 345.721904 44.860952 44.860952 0 0 0 44.324571 50.078477c21.796571 0 41.350095-15.701333 43.739429-37.205334a341.430857 341.430857 0 0 1 338.602667-303.445333c23.015619 0 45.689905 2.340571 66.950095 7.070476a341.138286 341.138286 0 0 1 271.750095 296.082286c2.389333 21.796571 21.845333 37.64419 43.641905 37.64419h0.146286a44.860952 44.860952 0 0 0 44.275809-50.127238 430.811429 430.811429 0 0 0-259.559619-345.819428zM246.113524 316.806095c28.086857-80.554667 106.008381-128.633905 191.146666-124.440381 12.726857 0.536381 24.966095 2.340571 37.059048 5.656381v0.585143a179.931429 179.931429 0 0 1 81.237333 42.617905 193.243429 193.243429 0 0 1 64.024381 143.457524c0 13.653333-1.80419 27.257905-4.729904 40.277333a196.120381 196.120381 0 0 1-39.15581 82.407619c-0.536381 0.487619-1.26781 1.219048-1.267809 1.755429a196.217905 196.217905 0 0 1-147.456 68.071619 193.487238 193.487238 0 0 1-180.857905-260.388572z" fill="#000000" p-id="11427"></path></svg>