<svg t="1735970676752" class="icon" viewBox="0 0 1638 1024" version="1.1" xmlns="http://www.w3.org/2000/svg" p-id="3022" width="128" height="128"><path d="M1468.21074742 503.14047051c0 122.05355645-259.92742538 386.49069786-632.81249999 386.49069785C473.82531425 889.63116836 202.58574742 631.99645234 202.58574742 503.13969803S473.82531425 116.65054512 835.39824743 116.65054512c375.17855645 0 632.8125 257.63394355 632.81249999 386.48992539z m-632.81249999-316.40625002c-167.22101211 0-305.09488105 140.0885582-305.09488105 314.11199571S665.88375349 815.03854941 835.39824743 815.03854941c167.22101211 0 305.09488105-140.16735076 305.09488109-314.19078824S1004.91274136 186.73499297 835.39824743 186.73499297z" p-id="3023" fill="#000000"></path><path d="M835.39824743 301.98535156c-106.23324395 0-194.35269354 90.41293145-194.35269356 201.15511895S726.95031423 704.29558945 835.39824743 704.29558945c108.44793319 0 194.35269354-90.41293145 194.35269356-201.15511894S941.63149137 301.98535156 835.39824743 301.98535156z" p-id="3024" fill="#000000"></path></svg>